<svg aria-hidden="true" style="position: absolute; width: 0; height: 0; overflow: hidden;" version="1.1" xmlns="http://www.w3.org/2000/svg" xmlns:xlink="http://www.w3.org/1999/xlink">
<defs>

                            <g id="logo" class="footer__logo" version="1.1" viewBox="0 0 272.53 52.355" transform="translate(32.722 -68.983)">
                                <g transform="matrix(.35278 0 0 -.35278 -45.95 200.16)">
                                    <g clip-path="url(#clipPath3748)">
                                        <g class="bettina-marten" fill="#3E3D40" transform="translate(37.509 288.3)">
                                            <path class="path path-1" d="m42.885 28.627c0.223-8.911-4.456-21.498-15.706-21.498-11.807 0-16.708 11.696-16.708 21.164 0 10.582 5.458 21.387 16.819 21.387 11.362 0 15.818-10.805 15.595-21.053m-42.885-28.627h10.025v8.02h0.223c2.785-4.233 9.245-9.357 19.382-9.357 17.154 0 24.394 15.149 24.394 30.744 0 15.26-8.02 28.738-24.506 28.738-9.914 0-15.594-3.898-18.825-9.134h-0.222v34.531h-10.471z"/>
                                            <path class="path path-2" d="m75.41 33.862c0.779 7.352 5.012 15.818 15.26 15.818 9.023 0 14.146-7.129 14.146-15.818zm36.201-21.052c-2.562-2.117-10.582-5.681-17.488-5.681-9.914 0-18.713 7.686-18.713 18.936h40.545c0 18.268-6.126 32.08-25.062 32.08-16.04 0-26.622-11.918-26.622-28.738 0-18.491 9.245-30.744 29.407-30.744 9.356 0 13.923 2.228 17.933 3.676z"/>
                                            <path class="path path-3" d="m160.18 56.809h-15.038v16.485l-10.47-3.342v-13.143h-12.81v-8.466h12.81v-33.194c0-11.362 6.683-16.486 17.488-16.486 3.342 0 6.572 0.891 8.911 1.56v8.911c-1.559-1.003-3.899-2.005-7.129-2.005-4.79 0-8.8 3.564-8.8 10.136v31.078h15.038z"/>
                                            <path class="path path-4" d="m203.51 56.809h-15.037v16.485l-10.471-3.342v-13.143h-12.81v-8.466h12.81v-33.194c0-11.362 6.684-16.486 17.488-16.486 3.342 0 6.572 0.891 8.912 1.56v8.911c-1.56-1.003-3.899-2.005-7.129-2.005-4.79 0-8.8 3.564-8.8 10.136v31.078h15.037z"/>
                                            <path class="path path-5" d="m217.99 0h10.471v56.809h-10.471z"/>
                                            <path class="path path-6" d="m229.12 81.314h-11.807v-11.807h11.807z"/>
                                            <path class="path path-7" d="m247.62 0h10.47v26.288c0 13.812 5.347 23.392 17.266 23.392 9.133-0.557 12.03-7.018 12.03-20.273v-29.407h10.47v33.751c0 15.26-6.572 24.394-21.275 24.394-7.909 0-15.483-3.898-18.602-10.359h-0.223v9.023h-10.136z"/>
                                            <path class="path path-8" d="m349.42 22.055c0-8.465-5.459-14.926-15.818-14.926-4.789 0-10.582 3.23-10.582 9.245 0 10.025 14.035 10.916 19.716 10.916 2.228 0 4.456-0.222 6.684-0.222zm-30.521 21.832c4.233 3.565 10.582 5.793 16.485 5.793 10.471 0 14.036-5.013 14.036-14.815-4.122 0.223-7.018 0.223-11.139 0.223-10.805 0-26.4-4.456-26.4-18.714 0-12.364 8.577-17.711 20.83-17.711 9.58 0 15.149 5.236 17.6 8.689h0.222v-7.352h9.803c-0.223 1.671-0.446 4.678-0.446 11.139v23.503c0 15.483-6.572 23.503-22.835 23.503-7.24 0-13.478-2.228-18.713-5.346z"/>
                                            <path class="path path-9" d="m408.46 0h10.47v28.627c0 10.582 4.233 21.053 14.927 21.053 8.465 0 10.136-8.8 10.136-15.818v-33.862h10.471v28.627c0 10.582 4.232 21.053 14.926 21.053 8.465 0 10.136-8.8 10.136-15.818v-33.862h10.471v36.424c0 12.365-5.236 21.721-19.716 21.721-5.124 0-13.701-2.896-17.6-11.027-3.007 7.686-9.579 11.027-16.151 11.027-8.354 0-14.035-3.007-18.045-9.579h-0.223v8.243h-9.802z"/>
                                            <path class="path path-10" d="m541.35 22.055c0-8.465-5.458-14.926-15.817-14.926-4.79 0-10.582 3.23-10.582 9.245 0 10.025 14.035 10.916 19.716 10.916 2.228 0 4.456-0.222 6.683-0.222zm-30.52 21.832c4.232 3.565 10.582 5.793 16.485 5.793 10.471 0 14.035-5.013 14.035-14.815-4.121 0.223-7.017 0.223-11.139 0.223-10.804 0-26.399-4.456-26.399-18.714 0-12.364 8.577-17.711 20.83-17.711 9.579 0 15.149 5.236 17.599 8.689h0.223v-7.352h9.802c-0.222 1.671-0.445 4.678-0.445 11.139v23.503c0 15.483-6.572 23.503-22.835 23.503-7.24 0-13.478-2.228-18.713-5.346z"/>
                                            <path class="path path-11" d="m569.53 0h10.47v25.842c0 14.258 6.127 23.169 15.483 23.169 1.783 0 3.899-0.222 5.793-1.002v9.357c-2.228 0.445-3.788 0.779-6.906 0.779-6.015 0-12.03-4.233-14.815-10.136h-0.223v8.8h-9.802z"/>
                                            <path class="path path-12" d="m643.04 56.809h-15.038v16.485l-10.47-3.342v-13.143h-12.81v-8.466h12.81v-33.194c0-11.362 6.683-16.486 17.488-16.486 3.342 0 6.572 0.891 8.911 1.56v8.911c-1.56-1.003-3.899-2.005-7.129-2.005-4.79 0-8.8 3.564-8.8 10.136v31.078h15.038z"/>
                                            <path class="path path-13" d="m663.54 33.862c0.78 7.352 5.013 15.818 15.261 15.818 9.022 0 14.146-7.129 14.146-15.818zm36.202-21.052c-2.562-2.117-10.582-5.681-17.488-5.681-9.914 0-18.714 7.686-18.714 18.936h40.546c0 18.268-6.126 32.08-25.062 32.08-16.04 0-26.622-11.918-26.622-28.738 0-18.491 9.245-30.744 29.406-30.744 9.357 0 13.924 2.228 17.934 3.676z"/>
                                            <path class="path path-14" d="m718.12 0h10.471v26.288c0 13.812 5.346 23.392 17.265 23.392 9.134-0.557 12.03-7.018 12.03-20.273v-29.407h10.471v33.751c0 15.26-6.572 24.394-21.276 24.394-7.908 0-15.483-3.898-18.602-10.359h-0.222v9.023h-10.137z"/>
                                        </g>
                                        <g class="landscape" fill="#92A763" transform="translate(37.496 224.1)">
                                            <path class="path path-15" d="m0 0h21.825v4.894h-16.263v33.974h-5.562z"/>
                                            <path class="path path-16" d="m64.601 14.362h-15.48l7.74 19.278zm-27.063-14.362h5.847l3.954 9.802h19.044l3.953-9.802h6.07l-16.427 38.868h-5.847z"/>
                                            <path class="path path-17" d="m95.905 0h5.563v31.969h0.111l17.606-31.969h7.123v38.868h-5.563v-31.3h-0.111l-17.16 31.3h-7.569z"/>
                                            <path class="path path-18" d="m155.32 33.974h6.518c8.023 0 14.207-5.348 14.207-14.429 0-10.027-5.293-14.651-14.875-14.651h-5.85zm-5.563-33.974h11.468c12.814 0 20.717 6.733 20.717 19.768 0 11.978-9.184 19.1-20.717 19.1h-11.468z"/>
                                            <path class="path path-19" d="m222.66 38.151c-2.67 0.94-5.733 1.385-8.297 1.385-7.021 0-12.472-3.67-12.472-10.576 0-12.089 16.708-9.693 16.708-18.384 0-4.568-4.459-6.35-7.635-6.35-2.842 0-6.181 1.114-8.072 1.894l-0.556-5.175c2.558-0.835 5.229-1.613 7.959-1.613 7.802 0 14.201 3.281 14.201 11.579 0 12.812-16.709 11.085-16.709 18.55 0 4.067 3.678 5.181 6.799 5.181 2.898 0 4.458-0.501 7.295-1.615z"/>
                                            <path class="path path-20" d="m273.28 37.872c-2.785 1.219-5.736 1.664-8.744 1.664-11.863 0-20.544-7.958-20.544-19.935 0-12.367 8.18-20.269 20.488-20.269 2.284 0 5.904 0.167 8.856 1.39l-0.334 5.398c-1.95-1.17-5.681-1.894-8.466-1.894-8.076 0-14.648 6.072-14.648 15.208 0 8.746 5.96 15.208 14.926 15.208 2.841 0 5.57-0.724 8.021-2.173z"/>
                                            <path class="path path-21" d="m316.73 14.362h-15.48l7.74 19.278zm-27.062-14.362h5.847l3.953 9.802h19.044l3.954-9.802h6.07l-16.427 38.868h-5.847z"/>
                                            <path class="path path-22" d="m353.32 33.974h4.736c3.455 0 8.582-1.783 8.582-6.687 0-5.127-4.347-6.854-7.801-6.854h-5.517zm-5.563-33.974h5.563v15.539h5.461c7.021 0 13.754 3.059 13.754 11.692 0 8.856-6.622 11.637-14.59 11.637h-10.188z"/>
                                            <path class="path path-23" d="m393.26 0h21.77v4.894h-16.208v12.817h14.76v4.894h-14.76v11.369h16.208v4.894h-21.77z"/>
                                        </g>
                                        <g class="architecture" fill="#87888A" transform="translate(483.21 246.05)">
                                            <path class="path path-24" d="m15.265-10.921c0-4.233-2.731-7.465-7.913-7.465-2.396 0-5.294 1.616-5.294 4.626 0 5.016 7.021 5.462 9.863 5.462 1.115 0 2.229-0.112 3.344-0.112zm-15.265 10.921c2.114 1.782 5.29 2.896 8.244 2.896 5.238 0 7.021-2.506 7.021-7.414-2.062 0.111-3.511 0.111-5.573 0.111-5.405 0-13.196-2.224-13.196-9.353 0-6.183 4.283-8.852 10.41-8.852 4.792 0 7.579 2.613 8.804 4.337h0.111v-3.669h4.895c-0.112 0.834-0.223 2.335-0.223 5.563v11.756c0 7.744-3.282 11.747-11.414 11.747-3.622 0-6.742-1.112-9.357-2.669z"/>
                                            <path class="path path-25" d="m31.026-21.944h5.229v12.921c0 7.129 3.063 11.585 7.741 11.585 0.891 0 1.949-0.111 2.896-0.501v4.672c-1.114 0.222-1.893 0.389-3.453 0.389-3.007 0-6.015-2.113-7.407-5.061h-0.111v4.393h-4.895z"/>
                                            <path class="path path-26" d="m72.846 6.015c-1.504 0.607-4.233 1.107-6.35 1.107-8.688 0-14.473-6.232-14.473-14.867 0-8.134 5.896-14.867 14.473-14.867 1.894 0 4.4 0.167 6.572 1.168l-0.39 4.673c-1.615-1.058-3.842-1.615-5.625-1.615-6.739 0-9.468 5.571-9.468 10.641 0 5.404 3.286 10.641 9.134 10.641 1.671 0 3.676-0.39 5.681-1.226z"/>
                                            <path class="path path-27" d="m80.76-21.944h5.229v13.144c0 6.906 2.674 11.696 8.636 11.696 4.569-0.278 6.018-3.509 6.018-10.136v-14.704h5.229v16.876c0 7.63-3.282 12.19-10.634 12.19-3.956 0-7.243-1.724-9.138-4.727h-0.111v17.425h-5.229z"/>
                                            <path class="path path-28" d="m117.13-21.944h5.228v28.397h-5.228z"/>
                                            <path class="path path-29" d="m122.69 18.706h-5.897v-5.897h5.897z"/>
                                            <path class="path path-30" d="m148.7 6.454h-7.519v8.242l-5.228-1.67v-6.572h-6.405v-4.226h6.405v-16.603c0-5.679 3.337-8.237 8.737-8.237 1.671 0 3.286 0.445 4.456 0.778v4.451c-0.78-0.502-1.95-1.003-3.565-1.003-2.395 0-4.4 1.783-4.4 5.07v15.544h7.519z"/>
                                            <path class="path path-31" d="m160.62-5.019c0.39 3.679 2.508 7.915 7.634 7.915 4.514 0 7.077-3.567 7.077-7.915zm18.104-10.525c-1.279-1.059-5.288-2.842-8.742-2.842-4.96 0-9.362 3.846-9.362 9.475h20.273c0 9.131-3.059 16.033-12.527 16.033-8.024 0-13.308-5.954-13.308-14.365 0-9.248 4.617-15.369 14.701-15.369 4.68 0 6.962 1.112 8.965 1.835z"/>
                                            <path class="path path-32" d="m208.07 6.015c-1.504 0.607-4.233 1.107-6.349 1.107-8.688 0-14.474-6.232-14.474-14.867 0-8.134 5.897-14.867 14.474-14.867 1.894 0 4.4 0.167 6.572 1.168l-0.39 4.673c-1.615-1.058-3.843-1.615-5.625-1.615-6.739 0-9.468 5.571-9.468 10.641 0 5.404 3.286 10.641 9.134 10.641 1.671 0 3.676-0.39 5.681-1.226z"/>
                                            <path class="path path-33" d="m231.07 6.454h-7.519v8.242l-5.228-1.67v-6.572h-6.405v-4.226h6.405v-16.603c0-5.679 3.337-8.237 8.737-8.237 1.671 0 3.286 0.445 4.456 0.778v4.451c-0.78-0.502-1.95-1.003-3.565-1.003-2.395 0-4.4 1.783-4.4 5.07v15.544h7.519z"/>
                                            <path class="path path-34" d="m264.43 6.454h-5.228v-13.144c0-6.906-2.675-11.696-8.637-11.696-4.569 0.278-6.018 3.509-6.018 10.136v14.704h-5.229v-16.876c0-7.63 3.282-12.19 10.634-12.19 3.956 0 7.745 1.946 9.305 5.173h0.111v-4.505h5.062z"/>
                                            <path class="path path-35" d="m275.02-21.944h5.229v12.921c0 7.129 3.063 11.585 7.741 11.585 0.891 0 1.95-0.111 2.896-0.501v4.672c-1.114 0.222-1.893 0.389-3.453 0.389-3.007 0-6.015-2.113-7.407-5.061h-0.111v4.393h-4.895z"/>
                                            <path class="path path-36" d="m302.02-5.019c0.39 3.679 2.507 7.915 7.634 7.915 4.513 0 7.076-3.567 7.076-7.915zm18.103-10.525c-1.279-1.059-5.287-2.842-8.742-2.842-4.959 0-9.361 3.846-9.361 9.475h20.273c0 9.131-3.06 16.033-12.528 16.033-8.023 0-13.308-5.954-13.308-14.365 0-9.248 4.617-15.369 14.701-15.369 4.681 0 6.963 1.112 8.965 1.835z"/>
                                        </g>
                                    </g>
                                </g>
                            </g>
                      
<symbol id="icon-mobile" viewBox="0 0 32 32">
<title>mobile</title>
<path d="M23 0h-14c-1.65 0-3 1.35-3 3v26c0 1.65 1.35 3 3 3h14c1.65 0 3-1.35 3-3v-26c0-1.65-1.35-3-3-3zM12 1.5h8v1h-8v-1zM16 30c-1.105 0-2-0.895-2-2s0.895-2 2-2 2 0.895 2 2-0.895 2-2 2zM24 24h-16v-20h16v20z"></path>
</symbol>
<symbol id="icon-mail" viewBox="0 0 32 32">
<title>mail</title>
<path d="M26.666 0h-21.332c-2.934 0-5.334 2.4-5.334 5.333v21.333c0 2.934 2.4 5.334 5.334 5.334h21.332c2.936 0 5.334-2.4 5.334-5.334v-21.333c0-2.934-2.398-5.333-5.334-5.333zM8 8h16c0.286 0 0.563 0.061 0.817 0.177l-8.817 10.286-8.817-10.287c0.254-0.116 0.531-0.177 0.817-0.177zM6 22v-12c0-0.042 0.002-0.084 0.004-0.125l5.864 6.842-5.8 5.8c-0.045-0.167-0.069-0.34-0.069-0.517zM24 24h-16c-0.177 0-0.35-0.024-0.517-0.069l5.691-5.691 2.826 3.297 2.826-3.297 5.691 5.691c-0.167 0.045-0.34 0.069-0.517 0.069zM26 22c0 0.177-0.024 0.35-0.069 0.517l-5.8-5.8 5.864-6.842c0.003 0.041 0.004 0.083 0.004 0.125v12z"></path>
</symbol>
<symbol id="icon-facebook2" viewBox="0 0 32 32">
<title>facebook2</title>
<path d="M29 0h-26c-1.65 0-3 1.35-3 3v26c0 1.65 1.35 3 3 3h13v-14h-4v-4h4v-2c0-3.306 2.694-6 6-6h4v4h-4c-1.1 0-2 0.9-2 2v2h6l-1 4h-5v14h9c1.65 0 3-1.35 3-3v-26c0-1.65-1.35-3-3-3z"></path>
</symbol>
<symbol id="icon-instagram" viewBox="0 0 32 32">
<title>instagram</title>
<path d="M16 2.881c4.275 0 4.781 0.019 6.462 0.094 1.563 0.069 2.406 0.331 2.969 0.55 0.744 0.288 1.281 0.638 1.837 1.194 0.563 0.563 0.906 1.094 1.2 1.838 0.219 0.563 0.481 1.412 0.55 2.969 0.075 1.688 0.094 2.194 0.094 6.463s-0.019 4.781-0.094 6.463c-0.069 1.563-0.331 2.406-0.55 2.969-0.288 0.744-0.637 1.281-1.194 1.837-0.563 0.563-1.094 0.906-1.837 1.2-0.563 0.219-1.413 0.481-2.969 0.55-1.688 0.075-2.194 0.094-6.463 0.094s-4.781-0.019-6.463-0.094c-1.563-0.069-2.406-0.331-2.969-0.55-0.744-0.288-1.281-0.637-1.838-1.194-0.563-0.563-0.906-1.094-1.2-1.837-0.219-0.563-0.481-1.413-0.55-2.969-0.075-1.688-0.094-2.194-0.094-6.463s0.019-4.781 0.094-6.463c0.069-1.563 0.331-2.406 0.55-2.969 0.288-0.744 0.638-1.281 1.194-1.838 0.563-0.563 1.094-0.906 1.838-1.2 0.563-0.219 1.412-0.481 2.969-0.55 1.681-0.075 2.188-0.094 6.463-0.094zM16 0c-4.344 0-4.887 0.019-6.594 0.094-1.7 0.075-2.869 0.35-3.881 0.744-1.056 0.412-1.95 0.956-2.837 1.85-0.894 0.888-1.438 1.781-1.85 2.831-0.394 1.019-0.669 2.181-0.744 3.881-0.075 1.713-0.094 2.256-0.094 6.6s0.019 4.887 0.094 6.594c0.075 1.7 0.35 2.869 0.744 3.881 0.413 1.056 0.956 1.95 1.85 2.837 0.887 0.887 1.781 1.438 2.831 1.844 1.019 0.394 2.181 0.669 3.881 0.744 1.706 0.075 2.25 0.094 6.594 0.094s4.888-0.019 6.594-0.094c1.7-0.075 2.869-0.35 3.881-0.744 1.050-0.406 1.944-0.956 2.831-1.844s1.438-1.781 1.844-2.831c0.394-1.019 0.669-2.181 0.744-3.881 0.075-1.706 0.094-2.25 0.094-6.594s-0.019-4.887-0.094-6.594c-0.075-1.7-0.35-2.869-0.744-3.881-0.394-1.063-0.938-1.956-1.831-2.844-0.887-0.887-1.781-1.438-2.831-1.844-1.019-0.394-2.181-0.669-3.881-0.744-1.712-0.081-2.256-0.1-6.6-0.1v0z"></path>
<path d="M16 7.781c-4.537 0-8.219 3.681-8.219 8.219s3.681 8.219 8.219 8.219 8.219-3.681 8.219-8.219c0-4.537-3.681-8.219-8.219-8.219zM16 21.331c-2.944 0-5.331-2.387-5.331-5.331s2.387-5.331 5.331-5.331c2.944 0 5.331 2.387 5.331 5.331s-2.387 5.331-5.331 5.331z"></path>
<path d="M26.462 7.456c0 1.060-0.859 1.919-1.919 1.919s-1.919-0.859-1.919-1.919c0-1.060 0.859-1.919 1.919-1.919s1.919 0.859 1.919 1.919z"></path>
</symbol>
<symbol id="icon-linkedin" viewBox="0 0 32 32">
<title>linkedin</title>
<path d="M29 0h-26c-1.65 0-3 1.35-3 3v26c0 1.65 1.35 3 3 3h26c1.65 0 3-1.35 3-3v-26c0-1.65-1.35-3-3-3zM12 26h-4v-14h4v14zM10 10c-1.106 0-2-0.894-2-2s0.894-2 2-2c1.106 0 2 0.894 2 2s-0.894 2-2 2zM26 26h-4v-8c0-1.106-0.894-2-2-2s-2 0.894-2 2v8h-4v-14h4v2.481c0.825-1.131 2.087-2.481 3.5-2.481 2.488 0 4.5 2.238 4.5 5v9z"></path>
</symbol>
</defs>
</svg>
